HIERARCHY
ROOT Hips
{
  OFFSET 126.96 91.9987 35.2002
  CHANNELS 6 Xposition Yposition Zposition Zrotation Xrotation Yrotation
  JOINT RightUpLeg
  {
    OFFSET -9.21262 -1.62705 0.0892923
    CHANNELS 3 Zrotation Xrotation Yrotation
    JOINT RightLeg
    {
      OFFSET 0.0960154 -41.8606 0.153467
      CHANNELS 3 Zrotation Xrotation Yrotation
      JOINT RightFoot
      {
        OFFSET 1.33859 -39.7491 3.70458
        CHANNELS 3 Zrotation Xrotation Yrotation
        End Site
        {
          OFFSET 0 -7.69 17.5
        }
      }
    }
  }
  JOINT LeftUpLeg
  {
    OFFSET 9.28909 -1.62806 0.0108209
    CHANNELS 3 Zrotation Xrotation Yrotation
    JOINT LeftLeg
    {
      OFFSET 0.0929201 -41.8886 0.0218006
      CHANNELS 3 Zrotation Xrotation Yrotation
      JOINT LeftFoot
      {
        OFFSET -1.57781 -41.3397 -3.31563
        CHANNELS 3 Zrotation Xrotation Yrotation
        End Site
        {
          OFFSET 0 -7.69 17.5
        }
      }
    }
  }
  JOINT Spine
  {
    OFFSET 0.0128959 14.3037 0.0259321
    CHANNELS 3 Zrotation Xrotation Yrotation
    JOINT Spine1
    {
      OFFSET 0.0143034 9.71252 0.015398
      CHANNELS 3 Zrotation Xrotation Yrotation
      JOINT Spine2
      {
        OFFSET 0.0468817 10.117 -0.0314137
        CHANNELS 3 Zrotation Xrotation Yrotation
        JOINT Spine3
        {
          OFFSET 0.0102655 9.71178 0.00221616
          CHANNELS 3 Zrotation Xrotation Yrotation
          JOINT Neck
          {
            OFFSET -0.0402596 10.3794 0.0231037
            CHANNELS 3 Zrotation Xrotation Yrotation
            JOINT Head
            {
              OFFSET -0.03453 9.49168 0.0708427
              CHANNELS 3 Zrotation Xrotation Yrotation
              End Site
              {
                OFFSET 0 15.95 0
              }
            }
          }
          JOINT RightShoulder
          {
            OFFSET -3.17991 6.93495 0.0309862
            CHANNELS 3 Zrotation Xrotation Yrotation
            JOINT RightArm
            {
              OFFSET -12.8253 0.0342167 0.035901
              CHANNELS 3 Zrotation Xrotation Yrotation
              JOINT RightForeArm
              {
                OFFSET -26.4423 -0.000685918 0.00421057
                CHANNELS 3 Zrotation Xrotation Yrotation
                JOINT RightHand
                {
                  OFFSET -25.9842 -0.0662606 -0.0268032
                  CHANNELS 3 Zrotation Xrotation Yrotation
                  JOINT RightHandThumb1
                  {
                    OFFSET -2.48905 0.190105 3.12053
                    CHANNELS 3 Zrotation Xrotation Yrotation
                    JOINT RightHandThumb2
                    {
                      OFFSET -3.68274 0 0
                      CHANNELS 3 Zrotation Xrotation Yrotation
                      JOINT RightHandThumb3
                      {
                        OFFSET -2.55832 0 0
                        CHANNELS 3 Zrotation Xrotation Yrotation
                        End Site
                        {
                          OFFSET -2.194 0 0
                        }
                      }
                    }
                  }
                  JOINT RightInHandIndex
                  {
                    OFFSET -3.22368 0.508421 1.97842
                    CHANNELS 3 Zrotation Xrotation Yrotation
                    JOINT RightHandIndex1
                    {
                      OFFSET -5.21684 -0.091368 0.999158
                      CHANNELS 3 Zrotation Xrotation Yrotation
                      JOINT RightHandIndex2
                      {
                        OFFSET -3.61937 0 0
                        CHANNELS 3 Zrotation Xrotation Yrotation
                        JOINT RightHandIndex3
                        {
                          OFFSET -2.0521 0 0
                          CHANNELS 3 Zrotation Xrotation Yrotation
                          End Site
                          {
                            OFFSET -1.805 0 0
                          }
                        }
                      }
                    }
                  }
                  JOINT RightInHandMiddle
                  {
                    OFFSET -3.38211 0.517263 0.756737
                    CHANNELS 3 Zrotation Xrotation Yrotation
                    JOINT RightHandMiddle1
                    {
                      OFFSET -5.17411 -0.084 0.313895
                      CHANNELS 3 Zrotation Xrotation Yrotation
                      JOINT RightHandMiddle2
                      {
                        OFFSET -3.94947 0 0
                        CHANNELS 3 Zrotation Xrotation Yrotation
                        JOINT RightHandMiddle3
                        {
                          OFFSET -2.47579 0 0
                          CHANNELS 3 Zrotation Xrotation Yrotation
                          End Site
                          {
                            OFFSET -1.975 0 0
                          }
                        }
                      }
                    }
                  }
                  JOINT RightInHandRing
                  {
                    OFFSET -3.36516 0.537895 -0.128947
                    CHANNELS 3 Zrotation Xrotation Yrotation
                    JOINT RightHandRing1
                    {
                      OFFSET -4.63474 -0.022105 -0.478947
                      CHANNELS 3 Zrotation Xrotation Yrotation
                      JOINT RightHandRing2
                      {
                        OFFSET -3.44238 0 0
                        CHANNELS 3 Zrotation Xrotation Yrotation
                        JOINT RightHandRing3
                        {
                          OFFSET -2.3881 0 0
                          CHANNELS 3 Zrotation Xrotation Yrotation
                          End Site
                          {
                            OFFSET -1.857 0 0
                          }
                        }
                      }
                    }
                  }
                  JOINT RightInHandPinky
                  {
                    OFFSET -3.16105 0.469368 -1.20179
                    CHANNELS 3 Zrotation Xrotation Yrotation
                    JOINT RightHandPinky1
                    {
                      OFFSET -4.14105 -0.022105 -1.09053
                      CHANNELS 3 Zrotation Xrotation Yrotation
                      JOINT RightHandPinky2
                      {
                        OFFSET -2.75653 0 0
                        CHANNELS 3 Zrotation Xrotation Yrotation
                        JOINT RightHandPinky3
                        {
                          OFFSET -1.74189 0 0
                          CHANNELS 3 Zrotation Xrotation Yrotation
                          End Site
                          {
                            OFFSET -1.645 0 0
                          }
                        }
                      }
                    }
                  }
                }
              }
            }
          }
          JOINT LeftShoulder
          {
            OFFSET 3.21113 6.90952 -0.0469957
            CHANNELS 3 Zrotation Xrotation Yrotation
            JOINT LeftArm
            {
              OFFSET 12.7919 -0.0331125 -0.0859637
              CHANNELS 3 Zrotation Xrotation Yrotation
              JOINT LeftForeArm
              {
                OFFSET 26.4755 -0.0026531 -0.0242133
                CHANNELS 3 Zrotation Xrotation Yrotation
                JOINT LeftHand
                {
                  OFFSET 25.9936 -0.03295 -0.105102
                  CHANNELS 3 Zrotation Xrotation Yrotation
                  JOINT LeftHandThumb1
                  {
                    OFFSET 2.48905 0.190105 3.12053
                    CHANNELS 3 Zrotation Xrotation Yrotation
                    JOINT LeftHandThumb2
                    {
                      OFFSET 3.68274 0 0
                      CHANNELS 3 Zrotation Xrotation Yrotation
                      JOINT LeftHandThumb3
                      {
                        OFFSET 2.55832 0 0
                        CHANNELS 3 Zrotation Xrotation Yrotation
                        End Site
                        {
                          OFFSET 2.194 0 0
                        }
                      }
                    }
                  }
                  JOINT LeftInHandIndex
                  {
                    OFFSET 3.22368 0.508421 1.97842
                    CHANNELS 3 Zrotation Xrotation Yrotation
                    JOINT LeftHandIndex1
                    {
                      OFFSET 5.21684 -0.091368 0.999158
                      CHANNELS 3 Zrotation Xrotation Yrotation
                      JOINT LeftHandIndex2
                      {
                        OFFSET 3.61937 0 0
                        CHANNELS 3 Zrotation Xrotation Yrotation
                        JOINT LeftHandIndex3
                        {
                          OFFSET 2.0521 0 0
                          CHANNELS 3 Zrotation Xrotation Yrotation
                          End Site
                          {
                            OFFSET 1.805 0 0
                          }
                        }
                      }
                    }
                  }
                  JOINT LeftInHandMiddle
                  {
                    OFFSET 3.38211 0.517263 0.756737
                    CHANNELS 3 Zrotation Xrotation Yrotation
                    JOINT LeftHandMiddle1
                    {
                      OFFSET 5.17411 -0.084 0.313895
                      CHANNELS 3 Zrotation Xrotation Yrotation
                      JOINT LeftHandMiddle2
                      {
                        OFFSET 3.94947 0 0
                        CHANNELS 3 Zrotation Xrotation Yrotation
                        JOINT LeftHandMiddle3
                        {
                          OFFSET 2.47579 0 0
                          CHANNELS 3 Zrotation Xrotation Yrotation
                          End Site
                          {
                            OFFSET 1.975 0 0
                          }
                        }
                      }
                    }
                  }
                  JOINT LeftInHandRing
                  {
                    OFFSET 3.36516 0.537895 -0.128947
                    CHANNELS 3 Zrotation Xrotation Yrotation
                    JOINT LeftHandRing1
                    {
                      OFFSET 4.63474 -0.022105 -0.478947
                      CHANNELS 3 Zrotation Xrotation Yrotation
                      JOINT LeftHandRing2
                      {
                        OFFSET 3.44238 0 0
                        CHANNELS 3 Zrotation Xrotation Yrotation
                        JOINT LeftHandRing3
                        {
                          OFFSET 2.3881 0 0
                          CHANNELS 3 Zrotation Xrotation Yrotation
                          End Site
                          {
                            OFFSET 1.857 0 0
                          }
                        }
                      }
                    }
                  }
                  JOINT LeftInHandPinky
                  {
                    OFFSET 3.16105 0.469368 -1.20179
                    CHANNELS 3 Zrotation Xrotation Yrotation
                    JOINT LeftHandPinky1
                    {
                      OFFSET 4.14105 -0.022105 -1.09053
                      CHANNELS 3 Zrotation Xrotation Yrotation
                      JOINT LeftHandPinky2
                      {
                        OFFSET 2.75653 0 0
                        CHANNELS 3 Zrotation Xrotation Yrotation
                        JOINT LeftHandPinky3
                        {
                          OFFSET 1.74189 0 0
                          CHANNELS 3 Zrotation Xrotation Yrotation
                          End Site
                          {
                            OFFSET 1.645 0 0
                          }
                        }
                      }
                    }
                  }
                }
              }
            }
          }
        }
      }
    }
  }
}
MOTION
Frames: 3
Frame Time: 0.00833333
2.999178083393379097e+02 9.451940551293060502e-03 1.071655249215103661e-01 2.283845872945332311e-01 -2.898042020347685321e-01 -1.846496004447817016e-02 6.607587074555770768e-01 2.701444842851761785e-01 1.002947667691464151e+00 -2.118200875898871294e-01 -4.278342076296879903e-01 -4.782121743221337540e-01 9.395813538406742882e-02 1.809593930024115949e-01 -1.036193930310155970e-01 5.391653004220331447e-01 -3.168327350667485831e-01 9.941862929107619928e-01 5.369800103541039205e-01 2.078178873683202144e-02 -7.928287378400274976e-01 2.376352833156575306e-02 6.218882883001962403e-02 5.811674837521825510e-02 7.581558817457917376e-02 -2.075579355300476159e-02 2.456828351556381018e-01 2.319968199673811543e-02 2.562392113095079450e-03 5.257359790932954191e-02 3.389970502152159226e-02 4.574455839635902660e-02 8.454510368741643966e-02 -1.838516718073135350e-03 1.413517611741596514e-02 -1.166307443987068052e-02 -9.989051024278890190e-03 3.892286080051814839e-02 -7.604977885031061202e-01 -1.544679363340638878e-01 1.265023224721295581e-01 2.176573971912619254e-01 3.178967900261871482e-01 -3.649902588957420480e-01 -3.088640442058174229e-01 4.978147246713604535e-01 2.257443241937095557e+00 2.642768823639999098e+00 -8.310242293533427471e-01 -3.835283298773296767e+00 1.464316555114461664e+02 -8.373756959069311723e-01 -1.748168575843521255e+00 -4.620497843751931732e+00 0.000000000000000000e+00 0.000000000000000000e+00 0.000000000000000000e+00 -8.166342883109764198e-15 -4.575294664622273075e-16 0.000000000000000000e+00 -3.017092250455552059e-16 3.937579507183957145e-15 0.000000000000000000e+00 7.033044795157079084e-15 5.652161637275502045e-15 -7.210971911160294640e-15 0.000000000000000000e+00 0.000000000000000000e+00 0.000000000000000000e+00 0.000000000000000000e+00 -5.783059873185627575e-15 -8.247710657599373150e-16 0.000000000000000000e+00 1.372530013105524737e-15 -8.366511452850465340e-15 7.033044795157079084e-15 5.652161637275502045e-15 -7.210971911160294640e-15 0.000000000000000000e+00 8.496181036572818793e-15 -1.366693692248523226e-15 0.000000000000000000e+00 3.076342339408977899e-17 5.765048343220372764e-15 0.000000000000000000e+00 -7.111392238829213038e-15 -1.744294327770660740e-14 7.033044795157079084e-15 5.652161637275502045e-15 -7.210971911160294640e-15 0.000000000000000000e+00 0.000000000000000000e+00 0.000000000000000000e+00 0.000000000000000000e+00 2.655730420421452280e-15 1.360372475758364019e-14 0.000000000000000000e+00 -9.935129234145206417e-17 -1.542816197911447194e-14 7.033044795157079084e-15 5.652161637275502045e-15 -7.210971911160294640e-15 0.000000000000000000e+00 0.000000000000000000e+00 0.000000000000000000e+00 0.000000000000000000e+00 6.397391155802969087e-15 1.639681972333328099e-14 0.000000000000000000e+00 -3.999909380149902565e-15 -3.484686690645951213e-14 2.377402294115565917e-01 2.197931515788165840e-02 2.007460819620049686e-01 -2.174932847560144544e-01 2.014772530790596705e-01 -4.824384497202918731e-02 1.231551980845347227e+00 -5.118407154542191639e-01 9.215764397929185892e-01 1.606686595019843067e-01 7.451831010870332284e-01 2.784325266862421044e-02 0.000000000000000000e+00 0.000000000000000000e+00 0.000000000000000000e+00 -5.613032603576723687e-16 -1.497433175857736724e-16 0.000000000000000000e+00 1.933089684070045088e-15 -3.358778093283299504e-15 0.000000000000000000e+00 -3.186222574282005490e-15 2.081802661544313492e-15 1.235434367879997890e-15 0.000000000000000000e+00 0.000000000000000000e+00 0.000000000000000000e+00 0.000000000000000000e+00 -6.360323388898785043e-15 9.511986381383192688e-15 0.000000000000000000e+00 -6.166039027335788429e-15 -1.463433685564937733e-15 -3.186222574282005490e-15 2.081802661544313492e-15 1.235434367879997890e-15 0.000000000000000000e+00 -1.630077176409420673e-15 1.655256307977502313e-15 0.000000000000000000e+00 -4.695153038961261906e-15 8.325159178541067944e-15 0.000000000000000000e+00 -6.829102449483204627e-15 5.527968565121507490e-15 -3.186222574282005490e-15 2.081802661544313492e-15 1.235434367879997890e-15 0.000000000000000000e+00 0.000000000000000000e+00 0.000000000000000000e+00 0.000000000000000000e+00 1.831919763149552841e-15 1.762307133913524908e-15 0.000000000000000000e+00 2.520347905810928505e-15 -1.049433847857496017e-14 -3.186222574282005490e-15 2.081802661544313492e-15 1.235434367879997890e-15 0.000000000000000000e+00 0.000000000000000000e+00 0.000000000000000000e+00 0.000000000000000000e+00 -8.169010095455424953e-16 1.647493545843456221e-15 0.000000000000000000e+00 -3.829031878535248077e-15 -2.969844138200133972e-15
2.999143382491283205e+02 9.861659197778574817e-03 1.056683039026516946e-01 1.986696610439946664e-01 -2.859686998206956710e-01 -4.791489950817905824e-02 6.986013514445664763e-01 3.164223583566960207e-01 8.956000503594995221e-01 -3.650786219684437062e-01 -4.497748017737489001e-01 -3.448206953008111642e-01 1.026101702737454435e-01 2.183707679793736034e-01 -5.603257013431030970e-02 5.123217345528396915e-01 -2.975403812230443257e-01 8.860511230379133352e-01 4.933225466207994958e-01 6.854677336783955577e-02 -7.117360662736743615e-01 -6.011615232833536493e-02 5.054236436176283431e-02 6.618406308777000091e-02 6.659247832576672965e-02 -4.468943437992911605e-02 2.252449127275540919e-01 2.084690845628410505e-02 3.023538073919406280e-04 4.867741577178466561e-02 2.975232521038392863e-02 3.298105957724814519e-02 7.827665148487680802e-02 -1.894700470190003932e-03 1.520084750882027581e-02 -1.065432620594826581e-02 -5.658622726682636245e-03 5.508252528632041206e-02 -8.559081000369634928e-01 -1.763097981732055508e-01 1.311283721716638984e-01 3.325313809957443634e-01 2.793759913732951627e-01 -4.162391246224068087e-01 -4.822107845524888914e-01 8.079922751656034574e-01 2.730334398948689234e+00 2.696180059048739697e+00 -8.449236767528732761e-01 -3.984245942235504767e+00 1.093912111060164705e+02 -7.644619181503238270e-01 -1.898032212519845885e+00 -4.266983842044207442e+00 0.000000000000000000e+00 0.000000000000000000e+00 0.000000000000000000e+00 -7.153765779640999119e-15 1.968135210156870556e-16 0.000000000000000000e+00 -2.223392309126057688e-15 4.803237047167699904e-15 0.000000000000000000e+00 8.100879994905158414e-15 5.132508471762721260e-15 -7.895350296593978599e-15 0.000000000000000000e+00 0.000000000000000000e+00 0.000000000000000000e+00 0.000000000000000000e+00 -4.759443406353407698e-15 -2.798864350585783547e-15 0.000000000000000000e+00 1.177283095897937005e-15 -1.033520675949976117e-14 8.100879994905158414e-15 5.132508471762721260e-15 -7.895350296593978599e-15 0.000000000000000000e+00 7.886672311308552608e-15 -3.177607740228773202e-15 0.000000000000000000e+00 -1.056458241412748251e-15 4.354366167431415735e-15 0.000000000000000000e+00 -7.318699299504675531e-15 -1.979712837965132446e-14 8.100879994905158414e-15 5.132508471762721260e-15 -7.895350296593978599e-15 0.000000000000000000e+00 0.000000000000000000e+00 0.000000000000000000e+00 0.000000000000000000e+00 2.720918592842703169e-15 1.180629704512806280e-14 0.000000000000000000e+00 -2.462320893246608905e-16 -1.596735837414049846e-14 8.100879994905158414e-15 5.132508471762721260e-15 -7.895350296593978599e-15 0.000000000000000000e+00 0.000000000000000000e+00 0.000000000000000000e+00 0.000000000000000000e+00 6.715129777003945685e-15 1.427767403591163606e-14 0.000000000000000000e+00 -4.583388964805447873e-15 -3.527979381375440975e-14 2.317062823574551900e-01 2.044762796098454488e-02 2.871963678793061359e-01 -1.857247937407429383e-01 2.287349662215444612e-01 -1.299313094152614034e-01 7.623260193638543569e-01 -4.546640695710629232e-01 3.897500668651148192e-01 1.170284730172952564e-01 7.931355987914789907e-01 -8.570057237673063544e-02 0.000000000000000000e+00 0.000000000000000000e+00 0.000000000000000000e+00 -1.770507256037964987e-15 -2.815130885082121594e-16 0.000000000000000000e+00 1.186213871167710857e-15 -3.179479910055644042e-15 0.000000000000000000e+00 -3.149366735533856029e-15 2.042142288428292140e-15 1.046403304606390554e-15 0.000000000000000000e+00 0.000000000000000000e+00 0.000000000000000000e+00 0.000000000000000000e+00 -6.267678082674781665e-15 7.003015712157423280e-15 0.000000000000000000e+00 -4.226392937559104117e-15 -6.116255349254925373e-15 -3.149366735533856029e-15 2.042142288428292140e-15 1.046403304606390554e-15 0.000000000000000000e+00 -1.650902788467301987e-15 1.380752698619204013e-15 0.000000000000000000e+00 -4.974293090807101787e-15 7.142319353942736846e-15 0.000000000000000000e+00 -6.252361458664021684e-15 2.956516130166519144e-15 -3.149366735533856029e-15 2.042142288428292140e-15 1.046403304606390554e-15 0.000000000000000000e+00 0.000000000000000000e+00 0.000000000000000000e+00 0.000000000000000000e+00 2.327497695056223374e-15 -4.880193860916693075e-16 0.000000000000000000e+00 4.123065586275593771e-15 -1.298531694686111527e-14 -3.149366735533856029e-15 2.042142288428292140e-15 1.046403304606390554e-15 0.000000000000000000e+00 0.000000000000000000e+00 0.000000000000000000e+00 0.000000000000000000e+00 -1.231602033132507850e-15 -4.007372976357222597e-16 0.000000000000000000e+00 -2.834631404455153314e-15 -7.973689368082545496e-15
2.999142508994449940e+02 1.017050829812700397e-02 1.013030468956874347e-01 1.661370679157432306e-01 -2.762796338770337479e-01 -7.209981978272572700e-02 7.200603063372573720e-01 3.498788534522607740e-01 7.669129312815621269e-01 -5.048653650607988208e-01 -4.631209671200147704e-01 -2.139454629427086918e-01 1.084160121576431546e-01 2.534395300870501133e-01 2.076221153586967419e-04 4.771535130652649892e-01 -2.731386804510333999e-01 7.672559326504586608e-01 4.478863631685867652e-01 1.195944444119472205e-01 -6.322898844492688131e-01 -1.456082419174351550e-01 3.521992593756694684e-02 7.443759384121251266e-02 5.379828642858457133e-02 -6.741666824198713770e-02 1.971078945727927079e-01 1.747997483376689462e-02 -2.079759922992760815e-03 4.300585406347376405e-02 2.409892607363954553e-02 1.926785338380505516e-02 6.924163143159045575e-02 -1.635718679385544331e-03 1.605880274697410112e-02 -9.344841144274329894e-03 1.125548992549118069e-03 7.163470710020437837e-02 -9.372827799156744355e-01 -1.923178354920148381e-01 1.305384694194634820e-01 4.509821034932953165e-01 2.294502161755147540e-01 -4.620169812365769180e-01 -6.864558081164311432e-01 1.099167835560805440e+00 3.183261324037785389e+00 2.700222412745057810e+00 -8.376257434326677132e-01 -4.045100449513848950e+00 6.967578603315587316e+01 -6.675241434548688790e-01 -1.989536583484426080e+00 -3.814297688148013954e+00 0.000000000000000000e+00 0.000000000000000000e+00 0.000000000000000000e+00 -5.757781758498589371e-15 9.789419124425438470e-16 0.000000000000000000e+00 -4.007757990358976513e-15 5.722454878513932426e-15 0.000000000000000000e+00 8.931501689181970738e-15 4.585200783652454682e-15 -8.468372401487967138e-15 0.000000000000000000e+00 0.000000000000000000e+00 0.000000000000000000e+00 0.000000000000000000e+00 -3.541817832607223186e-15 -4.664174000571755624e-15 0.000000000000000000e+00 8.735939895831928503e-16 -1.281024614115665404e-14 8.931501689181970738e-15 4.585200783652454682e-15 -8.468372401487967138e-15 0.000000000000000000e+00 6.925850013780512072e-15 -4.918594313412302383e-15 0.000000000000000000e+00 -2.320719074810565446e-15 2.951029346362764581e-15 0.000000000000000000e+00 -7.415729288043712158e-15 -2.207224608018066846e-14 8.931501689181970738e-15 4.585200783652454682e-15 -8.468372401487967138e-15 0.000000000000000000e+00 0.000000000000000000e+00 0.000000000000000000e+00 0.000000000000000000e+00 2.759487865734789015e-15 9.362613040283527992e-15 0.000000000000000000e+00 -6.749883585733393815e-16 -1.666627218093867086e-14 8.931501689181970738e-15 4.585200783652454682e-15 -8.468372401487967138e-15 0.000000000000000000e+00 0.000000000000000000e+00 0.000000000000000000e+00 0.000000000000000000e+00 6.696512760743988052e-15 1.189058482377187448e-14 0.000000000000000000e+00 -5.252650326868752131e-15 -3.570423485530650469e-14 2.195590242541251569e-01 1.892418253528672933e-02 3.553831851061792779e-01 -1.493478066532944737e-01 2.391238466034684429e-01 -2.108517860948634082e-01 2.704500420304417063e-01 -3.834766625945693064e-01 -1.545240937790336999e-01 6.810601411128633376e-02 8.173339101231268389e-01 -2.535919219581713735e-01 0.000000000000000000e+00 0.000000000000000000e+00 0.000000000000000000e+00 -3.078550606460024740e-15 -5.238814622572293165e-16 0.000000000000000000e+00 5.491982040135982246e-16 -3.009415353288705054e-15 0.000000000000000000e+00 -3.183817622614498987e-15 2.033837718244783251e-15 8.934912083602554097e-16 0.000000000000000000e+00 0.000000000000000000e+00 0.000000000000000000e+00 0.000000000000000000e+00 -6.010306351104497074e-15 4.136536010654466508e-15 0.000000000000000000e+00 -2.215198279656692958e-15 -1.072204456427859237e-14 -3.183817622614498987e-15 2.033837718244783251e-15 8.934912083602554097e-16 0.000000000000000000e+00 -1.615028347305644037e-15 1.060449061243807912e-15 0.000000000000000000e+00 -5.137722565058899238e-15 5.406576810830933390e-15 0.000000000000000000e+00 -5.441303030915751285e-15 -2.472559682432689208e-17 -3.183817622614498987e-15 2.033837718244783251e-15 8.934912083602554097e-16 0.000000000000000000e+00 0.000000000000000000e+00 0.000000000000000000e+00 0.000000000000000000e+00 2.797102953112571293e-15 -2.800614048712050885e-15 0.000000000000000000e+00 5.757209720919191354e-15 -1.511382227313839428e-14 -3.183817622614498987e-15 2.033837718244783251e-15 8.934912083602554097e-16 0.000000000000000000e+00 0.000000000000000000e+00 0.000000000000000000e+00 0.000000000000000000e+00 -1.776017372818350631e-15 -2.166671873558796702e-15 0.000000000000000000e+00 -1.715140292867030203e-15 -1.278427831603937221e-14
